<svg width="125" height="96" viewBox="0 0 125 96" fill="none" xmlns="http://www.w3.org/2000/svg">
<path d="M39.8608 72.7305L14.2693 47.8701C7.50583 43.6414 0.9739 49.1253 0.0964766 54.4508C-0.720015 59.4351 3.82553 63.4444 6.95744 66.6373L27.6744 87.3542C29.8436 89.5234 34.6938 94.7392 37.4235 95.6775C40.982 96.9084 43.5168 94.3736 45.954 92.1557L63.015 75.1678L104.449 33.7339C108.312 29.8708 122.083 16.8313 123.911 13.0169C127.359 5.8635 119.536 -1.7774 112.979 0.367415C108.324 1.87853 95.2482 16.1245 91.0439 20.3288L71.5456 39.8271C63.7462 47.6264 45.4422 64.9312 39.8608 72.7305Z" fill="#464948"/>
</svg>
