<svg width="78" height="96" viewBox="0 0 78 96" fill="none" xmlns="http://www.w3.org/2000/svg">
<path d="M31.1377 10.7006C20.8982 12.6407 11.8563 20.5209 9.71258 31.0599V47.8263V70.5808H0V81.3593H77.8443V70.5808H68.1318V47.8263V31.0599C65.988 20.5209 56.9461 12.6407 46.7066 10.7006C46.2276 -2.92818 36.2515 -0.976081 33.2216 2.68859C31.3054 5.01194 31.3054 7.87422 31.1377 10.7006ZM57.485 70.5808H20.5988V35.8503C21.4731 32.9641 23.0659 29.9102 24.8982 27.5868C32.3234 18.1616 45.521 18.1616 52.9461 27.5868C57.4252 33.2754 57.4731 37.4072 57.485 44.2335V70.5808ZM28.7425 84.9521C30.4551 99.6826 47.3892 99.6826 49.1018 84.9521H28.7425Z" fill="#464948"/>
</svg>
