<svg width="96" height="96" viewBox="0 0 96 96" fill="none" xmlns="http://www.w3.org/2000/svg">
<path d="M9.67121 1.43098C-1.21297 9.4175 0.0442792 18.2542 0.0442792 30.1441V81.6314C0.0682268 93.4017 2.43904 95.9401 14.4128 96H80.2687C91.3205 95.988 95.7508 95.078 95.8346 82.8288V21.7625C95.8226 14.3627 93.9308 4.17298 86.052 0.928085C83.9566 0.0659716 80.1849 0.209657 77.8739 0.209657H33.5709C26.5423 0.209657 16.0892 -0.748246 9.67121 1.43098ZM81.4661 15.7756H14.4128C18.005 10.1719 20.1243 10.998 26.3866 10.9861H73.0844C78.1852 11.0819 79.4904 10.8544 81.4661 15.7756ZM85.0582 26.552V85.2236H12.0181V26.552H85.0582ZM41.9526 36.131V54.0917C39.905 52.1161 36.4925 48.3443 33.5709 47.9971C30.1105 47.59 25.0096 51.7568 27.2727 56.4865C28.6257 59.3123 44.5509 74.6507 47.9394 78.0393L71.887 55.2891C64.5351 45.1593 62.1044 46.201 53.9263 54.0917V36.131H41.9526Z" fill="#464948"/>
</svg>
