<svg width="103" height="96" viewBox="0 0 103 96" fill="none" xmlns="http://www.w3.org/2000/svg">
<path d="M80.3691 1.03812C73.1839 5.81228 50.8245 29.3472 43.1834 37.0003C39.141 41.0547 32.6514 46.1528 33.9829 52.5943C34.8706 56.8767 41.0722 62.8144 44.3829 65.6093C46.2782 67.2167 47.8856 68.4762 50.3806 68.992C56.4623 70.2515 60.9366 64.7936 64.7751 60.9911L92.3645 33.4017C95.6872 30.079 101.805 24.837 102.764 20.2068C104.168 13.4054 92.4964 1.48195 86.3668 0.210437C83.7158 -0.341351 82.7322 0.282409 80.3691 1.03812ZM85.1673 10.6104L92.3645 17.8077L52.7797 58.592L44.3829 51.3948L63.5756 31.0026L85.1673 10.6104ZM0 83.7823C7.37716 104.954 44.3589 96.8453 42.2358 72.9865C40.9523 58.496 25.0704 53.9858 15.642 60.6312C3.22676 69.3878 14.8863 77.6767 0 83.7823Z" fill="#464948"/>
</svg>
