<svg width="97" height="96" viewBox="0 0 97 96" fill="none" xmlns="http://www.w3.org/2000/svg">
<path d="M2.61183 1.00799C-3.40209 7.46783 2.20206 12.9033 7.059 17.8566L27.5473 38.3449C29.6684 40.4781 34.7303 44.853 34.7303 47.9865C34.7303 50.6379 31.657 53.434 29.9456 55.2176L16.7006 68.4748L7.059 78.1163C4.39552 80.8401 1.03303 83.8772 0.225545 87.7579C-0.907338 93.2054 2.81671 96.9294 8.26419 95.7965C12.4583 94.9167 16.1703 90.6865 19.1109 87.7579L37.1889 69.68C39.8403 67.0406 45.1311 60.4 49.2408 61.4847C51.8199 62.1596 56.8456 67.6553 58.8824 69.68L76.9603 87.7579C79.901 90.6865 83.613 94.9167 87.807 95.7965C91.4588 96.5558 94.9659 95.1819 95.8457 91.3012C96.9665 86.3478 93.3148 82.5756 90.1933 79.3215L68.5239 57.628C66.4028 55.4948 61.341 51.12 61.341 47.9865C61.341 44.6963 67.4392 39.4296 69.7291 37.1397L87.807 19.0618C90.7357 16.1211 94.9659 12.4091 95.8457 8.21505C97.4004 0.766951 90.121 -2.77632 82.9863 2.56269L57.6772 27.4982C55.1824 29.9809 50.7594 35.5248 46.8304 34.4883C44.3959 33.8495 40.2501 29.3542 38.3941 27.4982L19.1109 8.21505C13.9166 3.05682 10.4094 -1.83627 2.61183 1.00799Z" fill="#464948"/>
</svg>
