<svg width="97" height="96" viewBox="0 0 97 96" fill="none" xmlns="http://www.w3.org/2000/svg">
<path d="M6.29964 1.05115C-1.91824 5.84292 0.262018 14.4801 0.262018 22.9256V80.4268C0.273998 91.2801 1.28027 95.8323 13.4394 96H80.5241C91.3775 95.988 95.9296 94.9818 96.0974 82.8226V15.7379C96.0734 3.66266 94.5161 0.236548 81.7221 0.164672H32.6064C25.3589 0.164672 12.8524 -0.566073 6.29964 1.05115ZM85.3159 10.9461V85.2185H11.0435V10.9461H85.3159ZM70.9406 22.9256L38.5961 56.4679L30.2106 48.1063C26.0417 44.1411 23.4422 41.3379 18.303 45.8781C17.0811 46.9563 15.38 48.9329 14.841 50.4782C12.9482 55.9289 26.3412 67.1416 30.2106 70.8193C32.0195 72.5443 34.7148 75.3954 37.3982 75.3954C41.0759 75.3954 47.9281 67.501 50.5756 64.8535L81.7221 33.707L70.9406 22.9256Z" fill="#464948"/>
</svg>
