<svg width="92" height="96" viewBox="0 0 92 96" fill="none" xmlns="http://www.w3.org/2000/svg">
<path d="M34.3693 1.4465C28.123 7.03596 30.5833 12.9957 25.9135 14.9544C23.2859 16.4115 18.1264 13.8675 12.7161 14.9544C7.43717 15.5515 2.31349 25.3451 0.677257 30.0865C-0.970919 34.84 0.569767 38.1363 3.49588 41.9224C4.72604 43.5108 7.59243 45.9353 7.59243 48.0015C7.59243 51.7636 -1.72335 56.0274 0.283128 64.7221C1.46552 69.8697 7.15053 80.3917 12.7161 81.4308C17.1829 82.0041 23.8831 80.0693 26.427 81.4308C30.0458 83.712 28.9709 90.2569 33.378 93.8757C36.6744 96.563 55.0671 96.8496 58.1723 93.8757C61.5284 90.6988 61.5284 83.6523 65.4816 81.6697C69.7573 79.5318 76.7322 84.7749 82.6203 80.4276C87.3498 76.9401 93.9903 64.5071 91.2194 58.7505C89.2727 54.7017 84.5192 51.5725 84.5073 48.0015C84.4834 44.0602 90.5506 40.3339 91.733 34.8639C92.987 29.0236 84.3759 14.7155 78.249 14.1064C73.8897 13.2704 68.6824 15.9696 65.5174 14.1064C61.827 12.4343 62.1136 5.62666 58.232 2.10338C54.7685 -1.04965 38.6928 -0.130017 34.3693 1.4465ZM75.9081 24.3179L80.6854 34.8639C78.5118 36.1418 75.9917 37.3839 74.6302 39.5218C72.7431 42.1015 73.1851 53.3402 74.6302 56.0035C76.2067 58.5116 79.5508 60.6495 81.8798 62.3335C80.5421 64.8057 78.4998 69.2606 75.6573 70.2041C72.6954 71.1954 69.7932 68.544 66.3535 68.6992C63.9529 68.8067 59.0084 71.3984 56.8705 72.6883C49.6329 77.0237 53.598 80.7978 50.8033 84.3091C48.8327 86.7934 43.0043 86.2201 40.0782 86.2201C39.696 78.1703 39.1347 74.9934 31.7179 70.8968C28.6365 69.2009 26.9286 68.3051 23.3576 68.8426L14.9973 70.6938C13.8149 68.3409 11.8323 65.1521 12.3936 62.441C13.4566 57.377 18.5683 58.631 18.5683 48.0015C18.5683 37.372 13.4566 38.626 12.3936 33.562C11.8323 30.8509 13.8149 27.6621 14.9973 25.3092C17.9353 25.8347 23.3695 27.674 25.7463 27.4351C27.8483 27.2201 29.9025 26.1094 31.7179 25.1062C39.1466 20.9857 39.696 17.8566 40.0782 9.78292C43.4821 9.78292 49.5134 8.95884 51.3049 12.5418C52.4515 14.8349 51.4602 18.2866 53.9324 21.141C55.2223 22.622 57.4677 23.6252 59.1875 24.3179C67.2612 28.8086 66.043 28.307 75.9081 24.3179ZM43.6612 30.6957C38.0956 31.9616 34.3096 33.4546 31.1566 38.5543C23.3098 51.262 33.2586 67.8513 48.4385 65.5104C69.5185 62.2499 68.348 29.0594 43.6612 30.6957Z" fill="#464948"/>
</svg>
