<svg width="98" height="96" viewBox="0 0 98 96" fill="none" xmlns="http://www.w3.org/2000/svg">
<path d="M78.3155 0.76475C75.1106 2.89734 70.1827 6.60829 68.8815 10.3795C67.1585 15.3676 78.7492 26.7414 83.1349 28.2475C88.1471 29.9825 95.3521 21.8135 96.8702 17.6086C99.8221 9.4397 90.4725 -3.24741 78.3155 0.76475ZM62.6524 15.1989L32.5311 45.272L15.6631 60.9833C7.51829 69.1282 0.0843398 73.056 0 85.0804V95.9241C4.02421 95.9241 16.1812 96.3458 19.2777 95.2012C23.579 93.6228 30.29 86.1166 33.7359 82.6707L61.4475 54.9591L75.8817 40.5008C77.6167 38.6815 80.4842 35.9706 80.4842 33.2717C80.4842 29.2113 66.2429 17.7652 62.6524 15.1989Z" fill="#464948"/>
</svg>
