<svg width="97" height="96" viewBox="0 0 97 96" fill="none" xmlns="http://www.w3.org/2000/svg">
<path d="M0 96H18.0049C28.0516 95.8079 31.6526 89.5543 38.4104 82.7964L75.6204 45.5864L86.4234 34.7834C94.8136 26.3812 100.779 20.4036 91.0926 9.57663C86.3513 4.2712 79.8336 -2.13853 72.0195 0.694231C67.3862 2.37469 56.8354 13.9578 52.8143 17.9789L15.6042 55.189C6.33771 64.4555 0.0240065 66.9281 0 80.3958V96ZM13.2036 82.7964C13.8878 74.2741 18.1969 71.8015 24.0065 65.9919L49.2133 40.7851C51.938 38.0603 60.1723 27.8576 64.3734 30.8704C69.6428 34.6634 57.7716 44.23 55.2149 46.7867L30.0081 71.9935C24.1985 77.8031 21.7259 82.1122 13.2036 82.7964Z" fill="#464948"/>
</svg>
