<svg width="105" height="96" viewBox="0 0 105 96" fill="none" xmlns="http://www.w3.org/2000/svg">
<path d="M1.96845 1.4987C-0.53175 4.97984 0.0663844 6.85798 0.0544217 11.0449V34.9703C0.102273 37.0997 0.0544218 39.9229 1.27462 41.7771C3.16472 44.6003 6.60998 44.4807 9.62458 44.5405H34.7462C38.0599 44.5405 43.4671 44.9233 45.9912 42.459C47.965 40.533 47.8574 37.5184 47.9052 34.9703V11.0449C47.8813 7.77911 48.2282 3.56824 45.1418 1.4987C42.9287 0.0272835 38.5623 0.2785 35.9425 0.2785C28.6453 0.266537 7.51915 -0.857956 1.96845 1.4987ZM59.0186 1.16374C55.6331 3.98694 56.303 5.57798 56.2791 9.84866V32.5778C56.2911 36.0948 55.7169 40.9158 59.0425 43.1409C61.3872 44.696 65.5023 44.5285 68.2418 44.5405H92.1672C95.2057 44.5285 99.919 44.9233 102.216 42.6265C104.357 40.4851 104.106 36.5853 104.13 33.7741V9.84866C104.106 7.3006 104.441 3.25721 102.216 1.4987C100.314 0.0033581 95.744 0.2785 93.3635 0.2785C85.7672 0.266537 65.1195 -0.499075 59.0186 1.16374ZM37.1388 11.0449V32.5778H10.8209V11.0449H37.1388ZM93.3635 11.0449V32.5778H67.0455V11.0449H93.3635ZM2.81781 52.9383C-0.436049 56.4314 0.0903098 57.8191 0.0544217 62.4845V87.6062C0.0903098 89.5442 0.00657102 92.4631 1.27462 94.0661C3.03313 96.2911 7.07653 95.9562 9.62458 95.9801H35.9425C38.981 95.9681 43.6944 96.3629 45.9912 94.0661C47.9531 92.1161 47.8574 88.9699 47.9052 86.4099V62.4845C47.8813 59.1948 48.2521 55.1992 45.1418 53.1177C42.7971 51.5626 38.682 51.7301 35.9425 51.7181C28.4419 51.6822 8.81112 50.6654 2.81781 52.9383ZM60.0474 52.6033C56.0757 55.3548 56.3748 56.551 56.2791 61.2883V86.4099C56.327 88.5393 56.2791 91.3625 57.4993 93.2167C59.3894 96.0399 62.8347 95.9203 65.8493 95.9801H93.3635C95.744 95.9801 100.314 96.2552 102.216 94.7599C104.25 93.1449 104.082 89.9389 104.13 87.6062V62.4845C104.106 59.2187 104.453 55.0078 101.367 52.9383C99.1534 51.4669 94.787 51.7181 92.1672 51.7181C84.523 51.7061 66.4713 50.9525 60.0474 52.6033ZM37.1388 63.6808V85.2137H10.8209V63.6808H37.1388ZM93.3635 63.6808V85.2137H67.0455V63.6808H93.3635Z" fill="#464948"/>
</svg>
