<svg width="97" height="96" viewBox="0 0 97 96" fill="none" xmlns="http://www.w3.org/2000/svg">
<path d="M6.29964 1.05115C-1.91824 5.84292 0.262018 14.4801 0.262018 22.9256V80.4268C0.273998 91.2801 1.28027 95.8323 13.4394 96H80.5241C91.3775 95.988 95.9296 94.9818 96.0974 82.8226V15.7379C96.0734 3.66266 94.5161 0.236548 81.7221 0.164672H32.6064C25.3589 0.164672 12.8524 -0.566073 6.29964 1.05115ZM85.3159 10.9461V85.2185H11.0435V10.9461H85.3159ZM57.7632 45.6865L43.3879 64.8535L32.6064 50.4782C27.024 55.2101 18.0634 68.639 15.8353 75.635H80.5241C77.8527 69.3817 63.0701 50.1069 57.7632 45.6865Z" fill="#464948"/>
</svg>
