<svg width="107" height="96" viewBox="0 0 107 96" fill="none" xmlns="http://www.w3.org/2000/svg">
<path d="M2.28946 1.46992C-1.21002 6.35486 0.330705 25.6557 0.378479 32.4994C0.462085 45.0044 3.11357 43.2487 23.0714 43.2487H94.733C97.7667 43.2367 102.473 43.6309 104.766 41.3377C106.724 39.3909 106.629 36.2497 106.677 33.6938V11.0009C106.677 8.62415 106.951 4.06169 105.458 2.16265C103.094 -0.823252 89.227 0.251673 85.1782 0.251673H27.8488C21.3873 0.251673 7.67603 -0.823252 2.28946 1.46992ZM95.9274 11.0009V31.3051H11.1277V11.0009H95.9274ZM3.13745 54.0218C2.20585 55.0251 2.01476 54.4279 1.0951 56.5658C-0.14704 59.4084 0.366536 80.4172 0.378479 85.0514C0.378479 87.4281 0.103776 91.9906 1.59673 93.8896C3.9974 96.9114 19.9899 95.8006 24.2657 95.8006H95.9274C98.3042 95.8006 102.867 96.0753 104.766 94.5824C106.796 92.97 106.629 89.7691 106.677 87.4401V64.7472C106.665 61.7135 107.059 57.0077 104.766 54.7146C102.473 52.4214 97.7667 52.8155 94.733 52.8036H32.6262C25.3168 52.8036 9.25259 51.7048 3.13745 54.0218ZM95.9274 64.7472V85.0514H11.1277V64.7472H95.9274Z" fill="#464948"/>
</svg>
