<svg width="69" height="96" viewBox="0 0 69 96" fill="none" xmlns="http://www.w3.org/2000/svg">
<path d="M14.3243 77.9784H53.6986C53.6986 74.6256 53.3406 65.3189 54.4145 62.6701C55.9775 58.8043 60.2371 57.0265 63.9359 50.5357C69.6392 40.8472 69.675 25.5389 63.9359 15.934C52.9827 -2.0708 24.7883 -5.42358 9.65902 8.9898C1.39041 16.8766 -0.112972 24.1907 0.00634442 35.0246C0.0898657 41.9091 1.43814 47.2187 5.54261 52.922C7.96473 56.2986 12.3914 59.6633 13.6084 62.6701C14.6822 65.3189 14.3243 74.6256 14.3243 77.9784ZM42.9601 67.2399H25.0627C25.0627 64.5672 25.3133 59.019 24.3468 56.7162C22.9031 53.2441 19.3117 51.9555 16.1856 48.042C10.7329 41.2409 9.52777 32.2087 13.0953 24.2861C22.6167 3.07172 55.8105 8.59606 57.1468 32.6382C57.9462 46.9681 46.2294 52.4089 44.1772 55.7498C42.5306 58.4344 42.9601 64.0542 42.9601 67.2399ZM19.0969 85.1373C19.2282 96.9615 21.2207 96.1502 39.3807 95.8758C42.1249 95.828 45.4538 95.9832 47.3868 93.6446C49.1646 91.4969 48.9021 87.7742 48.9259 85.1373H19.0969Z" fill="#464948"/>
</svg>
