<svg width="27" height="96" viewBox="0 0 27 96" fill="none" xmlns="http://www.w3.org/2000/svg">
<path d="M7.49088 0.877429C-7.60841 9.21013 2.03935 32.2476 19.3982 25.4093C27.7309 22.1336 29.1774 8.62433 22.7336 2.89784C18.5972 -0.784329 12.4762 -0.341991 7.49088 0.877429ZM9.85798 34.1485C-7.20194 40.8672 -0.0886551 64.6818 17.031 60.4616C26.5712 58.1065 29.823 45.7449 23.69 38.4045C19.8644 33.8376 15.3573 33.2757 9.85798 34.1485ZM7.49088 70.217C-7.60841 78.5497 2.03935 101.587 19.3982 94.7488C27.7309 91.4732 29.1774 77.9639 22.7336 72.2374C18.5972 68.5552 12.4762 68.9976 7.49088 70.217Z" fill="#464948"/>
</svg>
