<svg width="76" height="104" viewBox="0 0 76 104" fill="none" xmlns="http://www.w3.org/2000/svg">
<g filter="url(#filter0_d)">
<path d="M4.04123 68.5515H32.8959V86.5857C32.908 89.1105 32.5954 93.2584 34.8196 94.9656C38.2341 97.5986 41.9491 94.7733 43.0312 91.3227C44.1012 87.9203 43.7165 73.0841 43.7165 68.5515H71.3689C71.3689 65.2573 71.6694 58.1398 70.6475 55.3265C67.714 47.2351 63.0251 50.5534 62.9529 36.09C62.9169 28.2872 64.8886 7.079 58.8411 2.11358C56.2683 -0.00242889 52.8778 0.0697078 49.7279 0.0216166H28.0868C24.4078 0.0216166 19.5627 -0.363113 16.569 2.11358C10.4734 7.12709 12.5053 29.3452 12.4572 37.2923C12.373 50.5414 7.67211 47.3794 4.7626 55.3265C3.74066 58.1158 4.04123 65.2813 4.04123 68.5515ZM52.1324 10.8421L52.8057 48.1128L58.1438 57.731H17.2663C19.1539 54.7374 22.8208 49.9523 23.5422 46.9105C25.6221 41.2838 24.4319 17.2743 23.5422 10.8421H52.1324Z" fill="#464948"/>
</g>
<defs>
<filter id="filter0_d" x="0" y="0" width="75.4101" height="104" filterUnits="userSpaceOnUse" color-interpolation-filters="sRGB">
<feFlood flood-opacity="0" result="BackgroundImageFix"/>
<feColorMatrix in="SourceAlpha" type="matrix" values="0 0 0 0 0 0 0 0 0 0 0 0 0 0 0 0 0 0 127 0"/>
<feOffset dy="4"/>
<feGaussianBlur stdDeviation="2"/>
<feColorMatrix type="matrix" values="0 0 0 0 0 0 0 0 0 0 0 0 0 0 0 0 0 0 0.25 0"/>
<feBlend mode="normal" in2="BackgroundImageFix" result="effect1_dropShadow"/>
<feBlend mode="normal" in="SourceGraphic" in2="effect1_dropShadow" result="shape"/>
</filter>
</defs>
</svg>
