<svg width="68" height="96" viewBox="0 0 68 96" fill="none" xmlns="http://www.w3.org/2000/svg">
<path d="M0.0412304 68.5515H28.8959V86.5857C28.908 89.1105 28.5954 93.2584 30.8196 94.9656C34.2341 97.5986 37.9491 94.7733 39.0312 91.3227C40.1012 87.9203 39.7165 73.0841 39.7165 68.5515H67.3689C67.3689 65.2573 67.6695 58.1398 66.6475 55.3265C63.714 47.2351 59.0251 50.5534 58.9529 36.09C58.9169 28.2872 60.8886 7.079 54.8411 2.11358C52.2683 -0.00242901 48.8778 0.0697078 45.7279 0.0216166H24.0868C20.4078 0.0216166 15.5627 -0.363113 12.569 2.11358C6.47342 7.12709 8.50528 29.3452 8.45719 37.2923C8.37303 50.5414 3.67211 47.3794 0.762598 55.3265C-0.25934 58.1158 0.0412304 65.2813 0.0412304 68.5515Z" fill="#464948"/>
</svg>
