<svg width="100" height="96" viewBox="0 0 100 96" fill="none" xmlns="http://www.w3.org/2000/svg">
<path d="M57.0492 7.39724L71.6141 24.3896H48.5531C33.5998 24.3896 21.4018 23.4428 9.93198 35.4224C3.25643 42.4014 0.124991 50.0237 0.00361715 59.5879C-0.251268 81.4959 12.9785 95.9636 35.202 96H83.7514V81.4352H40.0569C35.7482 81.423 31.9006 81.6658 27.9196 79.6752C24.509 77.9639 21.0377 74.6868 18.683 71.7253C10.2718 61.1172 14.1315 50.9704 24.2905 43.2753C30.1528 38.833 34.3402 38.9665 41.2707 38.9544H72.8278L57.0492 57.1604C59.0883 60.0006 62.8266 65.4138 66.7591 65.4138C70.0241 65.4138 74.26 60.5589 76.469 58.3742L92.2476 42.5956C94.2139 40.6172 98.4498 36.6362 99.3237 34.0994C101.144 28.844 91.9806 21.6951 88.6064 18.3209L74.0415 3.82885C71.6141 1.61985 69.0895 -0.904719 65.5454 0.321155C62.9965 1.19505 59.0398 5.43099 57.0492 7.39724Z" fill="#464948"/>
</svg>
