<svg width="96" height="96" viewBox="0 0 96 96" fill="none" xmlns="http://www.w3.org/2000/svg">
<path d="M79.0377 30.1085H52.6919V43.2814H95.8031V0.170175H82.6303V14.5406C79.0137 11.1037 76.2714 8.49303 71.8525 6.03809C48.5844 -6.81144 17.197 1.41561 4.76664 25.3184C0.180083 34.1442 -0.0115227 39.6768 0.000452605 49.269C0.0363786 74.5729 18.3227 95.6615 44.3092 95.9728C55.7696 96.1046 62.7632 95.9968 73.05 89.8774C75.4091 88.4763 80.2831 85.4345 81.0256 82.6922C82.1153 78.7164 76.8821 74.022 73.05 74.7645C71.5171 75.0639 69.5891 76.5129 68.2599 77.3272C60.5358 82.0455 54.6918 84.3448 45.5067 83.9496C39.6268 83.6981 33.5673 81.6264 28.7413 78.2493C19.0772 71.4953 11.1854 60.2624 11.1854 48.0715C11.1854 25.7255 37.2318 4.26574 62.2722 15.6184C70.116 19.175 73.7565 23.6778 79.0377 30.1085Z" fill="#464948"/>
</svg>
