<svg width="96" height="96" viewBox="0 0 96 96" fill="none" xmlns="http://www.w3.org/2000/svg">
<path d="M26.5959 0.721856C10.8591 5.3752 0.210848 17.1355 0.0053759 33.9237C-0.175923 49.7572 4.18734 62.1459 19.3439 69.7242C25.7619 72.9393 35.2257 74.5226 42.3085 73.2535C46.7684 72.4437 54.4071 68.6485 58.021 70.1714C60.1362 71.0537 76.9245 86.7542 79.7769 89.5221C82.4601 92.1207 86.4608 96.8103 90.6307 95.8796C96.3839 94.5863 97.0003 88.9298 93.894 84.6874L76.1509 66.5575C74.0841 64.4666 70.2043 60.9614 69.5154 58.0969C68.8869 55.45 71.1712 51.1471 71.9931 48.4276C73.5644 43.2183 74.0237 38.1299 73.6248 32.7151C71.7877 7.51452 49.2341 -2.97664 26.5959 0.721856ZM31.4305 13.7754C37.3892 13.1106 42.9853 12.9293 48.3518 16.0718C71.6789 29.7055 57.32 62.3151 35.0565 60.1033C7.99462 57.4201 4.97297 20.2901 31.4305 13.7754Z" fill="#464948"/>
</svg>
