<svg width="96" height="96" viewBox="0 0 96 96" fill="none" xmlns="http://www.w3.org/2000/svg">
<circle cx="48" cy="48" r="48" fill="#464948"/>
<path d="M35.3661 61.8094L21.0066 47.8602C17.2116 45.4874 13.5465 48.5645 13.0541 51.5526C12.596 54.3493 15.1465 56.599 16.9039 58.3905L28.5282 70.0149C29.7454 71.232 32.4668 74.1586 33.9985 74.6851C35.9952 75.3758 37.4175 73.9535 38.785 72.709L48.3581 63.177L71.6068 39.9282C73.7744 37.7606 81.5012 30.4441 82.5269 28.3039C84.462 24.29 80.0721 20.0027 76.3933 21.2062C73.7812 22.0541 66.4442 30.0475 64.0851 32.4066L53.1446 43.3472C48.7683 47.7234 38.4978 57.4332 35.3661 61.8094Z" fill="#DDDBC7"/>
</svg>
