<svg width="127" height="96" viewBox="0 0 127 96" fill="none" xmlns="http://www.w3.org/2000/svg">
<path d="M7.21137 1.05099C-0.3944 5.24315 0.0128383 9.064 0.000860687 16.9333V79.2168C0.0248159 91.7214 2.33649 95.9135 15.5717 95.9854H86.2395C89.2339 95.9854 93.0308 96.2249 95.7138 94.7637C99.2113 92.8592 102.361 87.3256 104.613 84.0078L118.603 63.6459C121.921 58.8429 127.323 53.0577 126.652 46.8773C126.065 41.5113 113.453 24.6588 109.692 19.3288C106.997 15.5319 98.8998 2.36852 95.4383 0.847369C93.498 -0.00303966 89.6172 0.164647 87.4373 0.164647H34.7359C27.3218 0.164647 13.847 -0.565987 7.21137 1.05099ZM14.374 81.6123V14.5378H79.053L87.054 15.2205L102.313 34.8997L109.536 48.075L102.313 61.2504L87.054 80.9296L79.053 81.6123H14.374Z" fill="#464948"/>
</svg>
