<svg width="128" height="96" viewBox="0 0 128 96" fill="none" xmlns="http://www.w3.org/2000/svg">
<path d="M7.21179 1.05105C-0.394423 5.24345 0.012839 9.06453 0.000860738 16.9343V79.2214C0.0248173 91.7267 2.33663 95.9191 15.5726 95.991H87.4424C89.8021 95.991 93.5753 96.1348 95.7194 95.2723C100.403 93.4037 107.554 81.3296 110.608 76.8257C114.525 71.0881 127.21 55.0971 127.857 49.2757C128.528 43.1188 123.126 37.2854 119.808 32.5061L104.907 10.9451C102.99 8.23803 99.5644 2.9556 96.8094 1.38644C94.2221 -0.086888 90.3651 0.164656 87.4424 0.164656H34.7379C27.3234 0.164656 13.8478 -0.56602 7.21179 1.05105Z" fill="#464948"/>
</svg>
