<svg width="97" height="96" viewBox="0 0 97 96" fill="none" xmlns="http://www.w3.org/2000/svg">
<path d="M57.9623 71.9621C72.8344 77.5391 90.8729 71.4344 95.5744 55.171C96.4979 51.9927 96.3779 47.7109 96.342 44.3767C96.0421 18.5304 74.7654 0.0361798 49.5667 0.00019891C35.2703 -0.0237884 25.7713 2.11108 14.8331 12.2097C-4.94438 30.4761 -4.94438 65.4735 14.8331 83.7398C23.2407 91.4997 33.3393 95.8174 44.7693 95.9494C50.2984 96.0093 56.9908 96.645 60.1571 91.02C63.6833 84.7233 59.1976 78.1748 57.9623 71.9621ZM45.9686 11.1543C66.058 10.0988 85.3198 22.992 85.5477 44.3767C85.6077 50.3495 85.7036 54.8831 81.3139 59.5606C76.9962 64.1662 71.1673 65.2936 65.1585 64.1662C60.6129 63.3866 56.3432 60.712 52.1574 64.1662C44.8532 70.127 56.8469 83.8478 44.7453 84.8792C41.2551 85.1671 35.93 83.2721 32.7756 81.7969C18.3113 75.0324 10.8393 62.4991 11.1991 46.7754C11.6788 26.1104 26.7548 14.2247 45.9686 11.1543ZM34.023 20.0776C21.6695 27.2498 31.7562 40.1429 41.0393 36.293C46.5683 34.0022 47.5278 25.2588 43.0542 21.4568C40.1038 18.9502 37.4412 19.346 34.023 20.0776ZM56.7869 20.0896C44.9252 26.7101 52.829 40.1909 62.7118 36.4609C71.659 33.0787 70.1838 17.5709 56.7869 20.0896ZM21.9814 38.044C8.99224 41.4143 13.0821 56.4063 24.3801 54.9791C33.939 53.7677 34.8745 38.5838 21.9814 38.044ZM70.0879 39.6032C59.4615 48.2147 70.0759 59.2008 78.2795 54.9431C86.5671 50.6494 84.0605 34.8657 70.0879 39.6032Z" fill="#464948"/>
</svg>
