<svg width="100" height="96" viewBox="0 0 100 96" fill="none" xmlns="http://www.w3.org/2000/svg">
<path d="M42.5152 58.3666L26.7352 38.945H60.7229C66.4037 38.9693 69.1713 38.945 74.0752 42.3438C85.5582 50.3309 89.6489 61.6925 79.8896 72.9084C77.6925 75.4332 74.6579 78.1644 71.6475 79.6696C67.6661 81.6603 63.8182 81.4175 59.5091 81.4296H15.8106V95.9958H64.3645C67.6054 95.9958 70.895 96.0929 74.0752 95.3525C88.7871 91.9658 99.3839 78.0673 99.566 63.2219C99.6995 51.7389 97.903 44.0553 89.6367 35.4127C78.1659 23.432 65.9667 24.3788 51.0121 24.3788H27.9491L42.5152 8.59883C40.476 5.77056 37.4413 1.49782 34.0183 0.308252C30.049 -1.07553 26.9051 2.50531 24.3075 4.98156L7.31366 21.9511C5.34722 23.9297 1.1109 27.9111 0.236928 30.4481C-1.58384 35.704 7.5807 42.8536 10.9552 46.2281L25.5214 60.77C27.3543 62.5179 30.0854 65.4069 32.8044 65.4069C36.0818 65.4069 40.2939 60.5515 42.5152 58.3666Z" fill="#464948"/>
</svg>
